<?xml version="1.0" encoding="UTF-8" standalone="no"?>
<svg
   viewBox="0 0 366.33753 123.32204"
   height="123.32204"
   width="366.33752"
   id="svg1003"
   version="1.1"
   xmlns="http://www.w3.org/2000/svg"
   xmlns:svg="http://www.w3.org/2000/svg"
   xmlns:rdf="http://www.w3.org/1999/02/22-rdf-syntax-ns#"
   xmlns:cc="http://creativecommons.org/ns#"
   xmlns:dc="http://purl.org/dc/elements/1.1/">
  <metadata
     id="metadata1009">
    <rdf:RDF>
      <cc:Work
         rdf:about="">
        <dc:format>image/svg+xml</dc:format>
        <dc:type
           rdf:resource="http://purl.org/dc/dcmitype/StillImage" />
      </cc:Work>
    </rdf:RDF>
  </metadata>
  <defs
     id="defs1007" />
  <g
     transform="matrix(0.46499311,0,0,0.46499311,-0.19100869,-16.653399)"
     id="text1044"
     style="font-style:normal;font-variant:normal;font-weight:normal;font-stretch:normal;font-size:75.0257px;line-height:125%;font-family:Montserrat;-inkscape-font-specification:Montserrat;letter-spacing:0px;word-spacing:0px;fill:#404040;fill-opacity:1;stroke:none;stroke-width:2.72821px;stroke-linecap:butt;stroke-linejoin:miter;stroke-opacity:1"
     aria-label="APACHE">
    <path
       id="path1083"
       style="fill:#404040;fill-opacity:1;stroke-width:2.72821px"
       d="m 129.07063,90.722961 -5.2518,11.929089 h -9.45324 l 23.10792,-52.442965 h 9.45323 l 23.10792,52.442965 h -9.45324 l -5.2518,-11.929089 z m 22.65776,-8.177801 -9.52826,-21.607401 -9.52827,21.607401 z" />
    <path
       id="path1085"
       style="fill:#404040;fill-opacity:1;stroke-width:2.72821px"
       d="m 195.33238,50.209085 q 11.92909,0 17.40597,4.576567 5.47687,4.576568 5.47687,14.104831 0,9.528263 -5.62693,13.95478 -5.5519,4.426516 -17.10585,4.426516 h -9.30319 v 15.380271 h -8.85303 V 50.209085 Z m 1.12539,29.034944 q 7.35252,0 9.97842,-2.775951 2.70092,-2.850976 2.70092,-8.252826 0,-5.476876 -3.37615,-7.727647 -3.37616,-2.250771 -10.57863,-2.250771 h -9.00308 v 21.007195 z" />
    <path
       id="path1087"
       style="fill:#404040;fill-opacity:1;stroke-width:2.72821px"
       d="m 233.2567,90.722961 -5.2518,11.929089 h -9.45323 l 23.10791,-52.442965 h 9.45324 l 23.10791,52.442965 h -9.45324 L 259.5157,90.722961 Z M 255.91446,82.54516 246.3862,60.937759 236.85794,82.54516 Z" />
    <path
       id="path1089"
       style="fill:#404040;fill-opacity:1;stroke-width:2.72821px"
       d="m 305.44548,94.624297 q 4.57657,0 7.8777,-1.500514 3.30113,-1.57554 6.90237,-4.951696 l 5.70195,5.852004 q -8.32785,9.228159 -20.25694,9.228159 -11.85406,0 -19.73176,-7.652619 -7.80267,-7.652621 -7.80267,-19.35663 0,-11.704008 7.95272,-19.506681 8.02775,-7.802672 20.18192,-7.802672 12.22919,0 20.40699,9.003084 l -5.62693,6.152107 q -3.75129,-3.601234 -7.12744,-5.026722 -3.30113,-1.425488 -7.80267,-1.425488 -7.95273,0 -13.35458,5.176773 -5.40185,5.101747 -5.40185,13.129496 0,7.952724 5.32683,13.354574 5.40185,5.326825 12.75436,5.326825 z" />
    <path
       id="path1091"
       style="fill:#404040;fill-opacity:1;stroke-width:2.72821px"
       d="M 336.75582,102.65205 V 50.209085 h 8.85303 v 22.732786 h 26.03392 V 50.209085 h 8.85303 v 52.442965 h -8.85303 V 81.194697 h -26.03392 v 21.457353 z" />
    <path
       id="path1093"
       style="fill:#404040;fill-opacity:1;stroke-width:2.72821px"
       d="m 431.9142,50.209085 v 8.327852 h -27.98458 v 13.879754 h 25.13361 v 7.877698 h -25.13361 v 14.029805 h 28.88489 v 8.327856 H 395.07659 V 50.209085 Z" />
  </g>
  <g
     id="text1048"
     style="font-style:normal;font-variant:normal;font-weight:normal;font-stretch:normal;font-size:243.892px;line-height:125%;font-family:Montserrat;-inkscape-font-specification:Montserrat;letter-spacing:0px;word-spacing:0px;fill:#47618d;fill-opacity:1;stroke:none;stroke-width:8.86881px;stroke-linecap:butt;stroke-linejoin:miter;stroke-opacity:1"
     transform="matrix(0.46499311,0,-0.08199083,0.46499311,-0.19100869,-16.653399)"
     aria-label="STe   e">
    <path
       id="path1074"
       style="font-style:normal;font-variant:normal;font-weight:bold;font-stretch:normal;font-family:Montserrat;-inkscape-font-specification:'Montserrat Bold';fill:#325590;fill-opacity:1;stroke-width:8.86881px"
       d="m 115.21187,157.77224 q -9.5118,0 -15.12132,4.63395 -5.36563,4.39006 -5.36563,11.95072 0,7.31677 6.58509,11.70683 6.82898,4.39006 30.97432,10.48737 24.38923,5.85342 37.8033,17.80414 13.41408,11.95072 13.41408,34.87659 0,22.92588 -17.31635,37.31552 -17.07246,14.14575 -45.12007,14.14575 -40.486122,0 -72.923794,-29.99875 l 22.681981,-27.80372 q 27.559827,24.14534 50.973483,24.14534 10.48737,0 16.34078,-4.39006 6.09731,-4.63396 6.09731,-12.19462 0,-7.80455 -6.3412,-12.19461 -6.3412,-4.63395 -25.1209,-9.26791 -29.754859,-7.07287 -43.656719,-18.29192 -13.657967,-11.46293 -13.657967,-35.60827 0,-24.38923 17.316351,-37.55941 17.560244,-13.17018 43.656715,-13.17018 17.07246,0 34.14492,5.85341 17.07246,5.85342 29.75486,16.58468 l -19.26749,27.80372 q -22.1942,-16.82857 -45.85175,-16.82857 z" />
    <path
       id="path1076"
       style="font-style:normal;font-variant:normal;font-weight:bold;font-stretch:normal;font-family:Montserrat;-inkscape-font-specification:'Montserrat Bold';fill:#325590;fill-opacity:1;stroke-width:8.86881px"
       d="M 286.8663,161.18673 V 298.74197 H 248.8191 V 161.18673 h -48.29067 v -32.92545 h 134.62854 v 32.92545 z" />
    <path
       id="path1078"
       style="font-style:normal;font-variant:normal;font-weight:bold;font-stretch:normal;font-family:Montserrat;-inkscape-font-specification:'Montserrat Bold';fill:#325590;fill-opacity:1;stroke-width:8.86881px"
       d="m 472.81511,279.71838 q -22.1942,20.97473 -52.19295,20.97473 -29.75486,0 -49.26624,-18.29192 -19.51138,-18.53581 -19.51138,-49.51013 0,-30.97432 19.75527,-49.26624 19.99917,-18.29192 47.07121,-18.29192 27.07204,0 45.85175,16.34078 19.0236,16.34079 19.0236,44.87618 v 19.51138 H 387.9406 q 1.70724,10.73126 11.21904,17.56025 9.5118,6.82898 21.46252,6.82898 19.26749,0 31.706,-12.92629 z m -26.34037,-59.75361 q -1.21946,-11.70683 -8.78012,-18.04803 -7.56066,-6.3412 -18.53581,-6.3412 -10.73126,0 -19.75528,6.58509 -9.02401,6.5851 -10.48737,17.80414 z" />
    <path
       id="path1080"
       style="font-style:normal;font-variant:normal;font-weight:bold;font-stretch:normal;font-family:Montserrat;-inkscape-font-specification:'Montserrat Bold';fill:#325590;fill-opacity:1;stroke-width:8.86881px"
       d="m 816.265,279.71838 q -22.1942,20.97473 -52.19295,20.97473 -29.75486,0 -49.26624,-18.29192 -19.51138,-18.53581 -19.51138,-49.51013 0,-30.97432 19.75527,-49.26624 19.99917,-18.29192 47.07121,-18.29192 27.07204,0 45.85175,16.34078 19.0236,16.34079 19.0236,44.87618 v 19.51138 h -95.60577 q 1.70724,10.73126 11.21904,17.56025 9.5118,6.82898 21.46252,6.82898 19.26749,0 31.706,-12.92629 z m -26.34037,-59.75361 q -1.21946,-11.70683 -8.78012,-18.04803 -7.56066,-6.3412 -18.53581,-6.3412 -10.73126,0 -19.75528,6.58509 -9.02401,6.5851 -10.48737,17.80414 z" />
  </g>
  <path
     id="rect1064"
     d="m 218.19204,40.404871 h 69.72642 c 3.07311,0 5.5471,2.473994 5.5471,5.547097 V 115.6784 c 0,3.0731 -2.47399,5.5471 -5.5471,5.5471 h -69.72642 c -3.0731,0 -5.54709,-2.474 -5.54709,-5.5471 V 45.951968 c 0,-3.073103 2.47399,-5.547097 5.54709,-5.547097 z"
     style="opacity:1;fill:none;fill-opacity:1;stroke:#3d3d3d;stroke-width:4.19308;stroke-linecap:round;stroke-linejoin:bevel;stroke-miterlimit:4;stroke-dasharray:none;stroke-opacity:1" />
  <g
     transform="matrix(0.46499311,0,0,0.46499311,-0.19100869,-16.653399)"
     id="text1068"
     style="font-style:normal;font-variant:normal;font-weight:normal;font-stretch:normal;font-size:398.596px;line-height:125%;font-family:Meera;-inkscape-font-specification:Meera;letter-spacing:0px;word-spacing:0px;fill:#c32a42;fill-opacity:1;stroke:none;stroke-width:14.4944px;stroke-linecap:butt;stroke-linejoin:miter;stroke-opacity:1"
     aria-label="✓">
    <path
       id="path1070"
       style="font-style:normal;font-variant:normal;font-weight:normal;font-stretch:normal;font-family:OpenSymbol;-inkscape-font-specification:OpenSymbol;fill:#c32a42;fill-opacity:1;stroke-width:14.4944px"
       d="m 734.17498,35.814293 6.81194,9.925978 q -46.90511,35.616744 -96.535,100.038289 -45.93198,60.33437 -73.76364,118.52785 -21.6036,14.20777 -38.53615,27.83166 -26.27465,-86.02514 -61.11288,-100.03828 19.65733,-22.38211 38.73077,-22.38211 16.34867,0 39.50929,54.69019 Q 623.62683,98.873446 734.17498,35.814293 Z" />
  </g>
</svg>
